# xmcd
#
# Track frame offsets:
#	150
#	12055
#	22390
#	33582
#	42060
#	53225
#	62095
#	72200
#	82330
#	91257
#	103210
#	113777
#	123442
#	134362
#	143637
#	154567
#	166097
#	177467
#	187640
#	197090
#
# Disc length: 2774 seconds
#
# Revision: 5
# Processed by: cddbd v1.5.2PL0 Copyright (c) Steve Scherf et al.
# Submitted via: EZCDAudioConverter 1.3.4.1
#
DISCID=100ad414
DTITLE=The Byrds - Preflyte Sessions 1/2
DYEAR=2001
DGENRE=
TTITLE0=The Reason Why [Version 2]
TTITLE1=You Won't Have To Cry [Electric]
TTITLE2=She Has A Way [Version 4]
TTITLE3=You Showed Me [Electric]
TTITLE4=Here Without You [Version 2]
TTITLE5=Don't Be Long
TTITLE6=I Knew I'd Want You [Electric Version 2]
TTITLE7=Boston [Version 2]
TTITLE8=Tomorrow Is A Long Ways Away [Electric]
TTITLE9=For Me Again [Version 2]
TTITLE10=It's No Use [Version 2]
TTITLE11=You Movin' [Version 3]
TTITLE12=Please Let Me Love You
TTITLE13=The Airport Song
TTITLE14=Mr. Tambourine Man [Electric]
TTITLE15=She Has A Way [Version 3]
TTITLE16=I Knew I'd Want You [Electric Version 1]
TTITLE17=Boston [Instrumental]
TTITLE18=You Showed Me [Instrumental]
TTITLE19=The Times They Are A-Changin' [Instrumental]
EXTD=
EXTT0=
EXTT1=
EXTT2=
EXTT3=
EXTT4=
EXTT5=
EXTT6=
EXTT7=
EXTT8=
EXTT9=
EXTT10=
EXTT11=
EXTT12=
EXTT13=
EXTT14=
EXTT15=
EXTT16=
EXTT17=
EXTT18=
EXTT19=
PLAYORDER=
